<svg width="950" height="155" viewBox="0 0 950 155" fill="none" xmlns="http://www.w3.org/2000/svg">
<path d="M0.274148 153V0.272723H32.5646V63.2876H98.1151V0.272723H130.331V153H98.1151V89.9105H32.5646V153H0.274148ZM178.744 0.272723V153H146.454V0.272723H178.744ZM227.098 26.8956V0.272723H352.531V26.8956H305.773V153H273.856V26.8956H227.098ZM362.688 153V0.272723H394.979V63.2876H460.529V0.272723H492.745V153H460.529V89.9105H394.979V153H362.688ZM508.868 153V0.272723H611.78V26.8956H541.158V63.2876H606.485V89.9105H541.158V126.377H612.078V153H508.868ZM626.952 153V0.272723H687.208C698.742 0.272723 708.585 2.33593 716.739 6.46235C724.942 10.5391 731.181 16.331 735.457 23.8381C739.782 31.2954 741.945 40.0703 741.945 50.1626C741.945 60.3047 739.757 69.0298 735.382 76.3381C731.007 83.5966 724.669 89.1648 716.366 93.0426C708.113 96.9205 698.12 98.8594 686.387 98.8594H646.043V72.9077H681.167C687.332 72.9077 692.453 72.0625 696.529 70.3722C700.606 68.6818 703.639 66.1463 705.627 62.7656C707.666 59.3849 708.685 55.1839 708.685 50.1626C708.685 45.0916 707.666 40.816 705.627 37.3359C703.639 33.8558 700.581 31.2209 696.455 29.4311C692.378 27.5916 687.232 26.6719 681.018 26.6719H659.242V153H626.952ZM709.431 83.4972L747.389 153H711.742L674.605 83.4972H709.431ZM754.264 153V0.272723H857.176V26.8956H786.555V63.2876H851.882V89.9105H786.555V126.377H857.475V153H754.264ZM947.813 0.272723L944.905 107.212H917.611L914.628 0.272723H947.813ZM931.258 154.939C926.336 154.939 922.11 153.199 918.58 149.719C915.051 146.189 913.311 141.963 913.36 137.041C913.311 132.169 915.051 127.993 918.58 124.513C922.11 121.033 926.336 119.293 931.258 119.293C935.981 119.293 940.132 121.033 943.712 124.513C947.291 127.993 949.106 132.169 949.156 137.041C949.106 140.322 948.236 143.33 946.546 146.065C944.905 148.749 942.742 150.912 940.058 152.553C937.373 154.143 934.44 154.939 931.258 154.939Z" fill="black"/>
</svg>
